<mxfile host="Electron" agent="Mozilla/5.0 (Windows NT 10.0; Win64; x64) AppleWebKit/537.36 (KHTML, like Gecko) draw.io/27.0.9 Chrome/134.0.6998.205 Electron/35.4.0 Safari/537.36" version="27.0.9">
  <diagram name="Страница — 1" id="czSJxoBG8e3vziPSl5HL">
    <mxGraphModel dx="4831" dy="1375" grid="1" gridSize="10" guides="1" tooltips="1" connect="1" arrows="1" fold="1" page="1" pageScale="1" pageWidth="827" pageHeight="1169" math="0" shadow="0">
      <root>
        <mxCell id="0" />
        <mxCell id="1" parent="0" />
        <mxCell id="rNKQusdqsnOIFdmcayMd-1" value="&lt;h3 style=&quot;font-weight: var(--ds-font-weight-strong); font-size: calc(var(--ds-md-zoom)*16px); line-height: 1.5; margin: calc(var(--ds-md-zoom)*16px)0 calc(var(--ds-md-zoom)*12px)0; color: rgb(64, 64, 64); font-family: DeepSeek-CJK-patch, Inter, system-ui, -apple-system, BlinkMacSystemFont, &amp;quot;Segoe UI&amp;quot;, Roboto, &amp;quot;Noto Sans&amp;quot;, Ubuntu, Cantarell, &amp;quot;Helvetica Neue&amp;quot;, Oxygen, &amp;quot;Open Sans&amp;quot;, sans-serif; text-align: start;&quot;&gt;Модерация комментариев&lt;/h3&gt;" style="swimlane;html=1;childLayout=stackLayout;resizeParent=1;resizeParentMax=0;horizontal=1;startSize=20;horizontalStack=0;whiteSpace=wrap;" parent="1" vertex="1">
          <mxGeometry x="-2440" y="30" width="1280" height="710" as="geometry" />
        </mxCell>
        <mxCell id="rNKQusdqsnOIFdmcayMd-2" value="Пользователь" style="swimlane;html=1;startSize=20;horizontal=0;" parent="rNKQusdqsnOIFdmcayMd-1" vertex="1">
          <mxGeometry y="20" width="1280" height="190" as="geometry" />
        </mxCell>
        <mxCell id="rNKQusdqsnOIFdmcayMd-3" value="Пользователь&lt;div&gt;оставляет&lt;div&gt;комментарий&lt;/div&gt;&lt;/div&gt;" style="points=[[0.145,0.145,0],[0.5,0,0],[0.855,0.145,0],[1,0.5,0],[0.855,0.855,0],[0.5,1,0],[0.145,0.855,0],[0,0.5,0]];shape=mxgraph.bpmn.event;html=1;verticalLabelPosition=bottom;labelBackgroundColor=#ffffff;verticalAlign=top;align=center;perimeter=ellipsePerimeter;outlineConnect=0;aspect=fixed;outline=standard;symbol=general;fillColor=#d5e8d4;strokeColor=#82b366;" parent="rNKQusdqsnOIFdmcayMd-2" vertex="1">
          <mxGeometry x="70" y="25" width="50" height="50" as="geometry" />
        </mxCell>
        <mxCell id="rNKQusdqsnOIFdmcayMd-5" value="Пользователь получает предупреждение или бан" style="points=[[0.145,0.145,0],[0.5,0,0],[0.855,0.145,0],[1,0.5,0],[0.855,0.855,0],[0.5,1,0],[0.145,0.855,0],[0,0.5,0]];shape=mxgraph.bpmn.event;html=1;verticalLabelPosition=bottom;labelBackgroundColor=#ffffff;verticalAlign=top;align=center;perimeter=ellipsePerimeter;outlineConnect=0;aspect=fixed;outline=end;symbol=terminate2;fillColor=#f8cecc;strokeColor=#b85450;" parent="rNKQusdqsnOIFdmcayMd-2" vertex="1">
          <mxGeometry x="780" y="90" width="50" height="50" as="geometry" />
        </mxCell>
        <mxCell id="rNKQusdqsnOIFdmcayMd-8" value="Модераторы" style="swimlane;html=1;startSize=20;horizontal=0;" parent="rNKQusdqsnOIFdmcayMd-1" vertex="1">
          <mxGeometry y="210" width="1280" height="230" as="geometry" />
        </mxCell>
        <mxCell id="rNKQusdqsnOIFdmcayMd-95" value="&lt;div style=&quot;text-align: left;&quot;&gt;&lt;span style=&quot;background-color: transparent; font-size: 16.002px;&quot;&gt;&lt;font face=&quot;DeepSeek-CJK-patch, Inter, system-ui, -apple-system, BlinkMacSystemFont, Segoe UI, Roboto, Noto Sans, Ubuntu, Cantarell, Helvetica Neue, Oxygen, Open Sans, sans-serif&quot; color=&quot;#404040&quot;&gt;Анализ комментария&lt;/font&gt;&lt;/span&gt;&lt;/div&gt;" style="points=[[0.25,0,0],[0.5,0,0],[0.75,0,0],[1,0.25,0],[1,0.5,0],[1,0.75,0],[0.75,1,0],[0.5,1,0],[0.25,1,0],[0,0.75,0],[0,0.5,0],[0,0.25,0]];shape=mxgraph.bpmn.task2;whiteSpace=wrap;rectStyle=rounded;size=10;html=1;container=1;expand=0;collapsible=0;taskMarker=abstract;" parent="rNKQusdqsnOIFdmcayMd-8" vertex="1">
          <mxGeometry x="170" y="70" width="190" height="80" as="geometry" />
        </mxCell>
        <mxCell id="rNKQusdqsnOIFdmcayMd-96" style="edgeStyle=orthogonalEdgeStyle;rounded=0;orthogonalLoop=1;jettySize=auto;html=1;entryX=0;entryY=0.5;entryDx=0;entryDy=0;entryPerimeter=0;exitX=1;exitY=0.5;exitDx=0;exitDy=0;exitPerimeter=0;" parent="rNKQusdqsnOIFdmcayMd-8" source="rNKQusdqsnOIFdmcayMd-95" target="qkGWPTD8oXom4SQ6_oq9-5" edge="1">
          <mxGeometry relative="1" as="geometry" />
        </mxCell>
        <mxCell id="qkGWPTD8oXom4SQ6_oq9-5" value="Комментарий недопустим" style="points=[[0.25,0.25,0],[0.5,0,0],[0.75,0.25,0],[1,0.5,0],[0.75,0.75,0],[0.5,1,0],[0.25,0.75,0],[0,0.5,0]];shape=mxgraph.bpmn.gateway2;html=1;verticalLabelPosition=bottom;labelBackgroundColor=#ffffff;verticalAlign=top;align=center;perimeter=rhombusPerimeter;outlineConnect=0;outline=none;symbol=none;fillColor=#fff2cc;strokeColor=#d6b656;" parent="rNKQusdqsnOIFdmcayMd-8" vertex="1">
          <mxGeometry x="420" y="85" width="50" height="50" as="geometry" />
        </mxCell>
        <mxCell id="IGT3o1ntx_T7jHhQjhBh-1" value="Да" style="text;html=1;align=center;verticalAlign=middle;whiteSpace=wrap;rounded=0;" parent="rNKQusdqsnOIFdmcayMd-8" vertex="1">
          <mxGeometry x="470" y="80" width="60" height="30" as="geometry" />
        </mxCell>
        <mxCell id="rNKQusdqsnOIFdmcayMd-97" style="edgeStyle=orthogonalEdgeStyle;rounded=0;orthogonalLoop=1;jettySize=auto;html=1;exitX=1;exitY=0.5;exitDx=0;exitDy=0;exitPerimeter=0;entryX=0;entryY=0.5;entryDx=0;entryDy=0;entryPerimeter=0;" parent="rNKQusdqsnOIFdmcayMd-1" source="rNKQusdqsnOIFdmcayMd-3" target="rNKQusdqsnOIFdmcayMd-95" edge="1">
          <mxGeometry relative="1" as="geometry" />
        </mxCell>
        <mxCell id="qkGWPTD8oXom4SQ6_oq9-8" style="edgeStyle=orthogonalEdgeStyle;rounded=0;orthogonalLoop=1;jettySize=auto;html=1;exitX=1;exitY=0.5;exitDx=0;exitDy=0;exitPerimeter=0;entryX=0.5;entryY=0;entryDx=0;entryDy=0;entryPerimeter=0;" parent="rNKQusdqsnOIFdmcayMd-1" source="qkGWPTD8oXom4SQ6_oq9-5" target="qkGWPTD8oXom4SQ6_oq9-9" edge="1">
          <mxGeometry relative="1" as="geometry">
            <mxPoint x="810" y="529.9999999999998" as="targetPoint" />
          </mxGeometry>
        </mxCell>
        <mxCell id="qkGWPTD8oXom4SQ6_oq9-10" style="edgeStyle=orthogonalEdgeStyle;rounded=0;orthogonalLoop=1;jettySize=auto;html=1;exitX=1;exitY=0.5;exitDx=0;exitDy=0;exitPerimeter=0;entryX=0.5;entryY=1;entryDx=0;entryDy=0;entryPerimeter=0;" parent="rNKQusdqsnOIFdmcayMd-1" source="qkGWPTD8oXom4SQ6_oq9-9" target="rNKQusdqsnOIFdmcayMd-5" edge="1">
          <mxGeometry relative="1" as="geometry">
            <mxPoint x="805" y="159.99999999999977" as="targetPoint" />
          </mxGeometry>
        </mxCell>
        <mxCell id="qkGWPTD8oXom4SQ6_oq9-6" style="edgeStyle=orthogonalEdgeStyle;rounded=0;orthogonalLoop=1;jettySize=auto;html=1;exitX=0.5;exitY=1;exitDx=0;exitDy=0;exitPerimeter=0;entryX=0.5;entryY=0;entryDx=0;entryDy=0;entryPerimeter=0;" parent="rNKQusdqsnOIFdmcayMd-1" source="qkGWPTD8oXom4SQ6_oq9-5" target="qkGWPTD8oXom4SQ6_oq9-7" edge="1">
          <mxGeometry relative="1" as="geometry">
            <mxPoint x="521" y="519.9999999999998" as="targetPoint" />
          </mxGeometry>
        </mxCell>
        <mxCell id="rNKQusdqsnOIFdmcayMd-14" value="Система" style="swimlane;html=1;startSize=20;horizontal=0;" parent="rNKQusdqsnOIFdmcayMd-1" vertex="1">
          <mxGeometry y="440" width="1280" height="270" as="geometry" />
        </mxCell>
        <mxCell id="qkGWPTD8oXom4SQ6_oq9-7" value="Комментарий сохраняется" style="points=[[0.145,0.145,0],[0.5,0,0],[0.855,0.145,0],[1,0.5,0],[0.855,0.855,0],[0.5,1,0],[0.145,0.855,0],[0,0.5,0]];shape=mxgraph.bpmn.event;html=1;verticalLabelPosition=bottom;labelBackgroundColor=#ffffff;verticalAlign=top;align=center;perimeter=ellipsePerimeter;outlineConnect=0;aspect=fixed;outline=end;symbol=terminate2;fillColor=#f8cecc;strokeColor=#b85450;" parent="rNKQusdqsnOIFdmcayMd-14" vertex="1">
          <mxGeometry x="420" y="80" width="50" height="50" as="geometry" />
        </mxCell>
        <mxCell id="qkGWPTD8oXom4SQ6_oq9-9" value="&lt;div style=&quot;text-align: left;&quot;&gt;&lt;span style=&quot;background-color: transparent; font-size: 16.002px;&quot;&gt;&lt;font face=&quot;DeepSeek-CJK-patch, Inter, system-ui, -apple-system, BlinkMacSystemFont, Segoe UI, Roboto, Noto Sans, Ubuntu, Cantarell, Helvetica Neue, Oxygen, Open Sans, sans-serif&quot; color=&quot;#404040&quot;&gt;Удаление комментария&lt;/font&gt;&lt;/span&gt;&lt;/div&gt;" style="points=[[0.25,0,0],[0.5,0,0],[0.75,0,0],[1,0.25,0],[1,0.5,0],[1,0.75,0],[0.75,1,0],[0.5,1,0],[0.25,1,0],[0,0.75,0],[0,0.5,0],[0,0.25,0]];shape=mxgraph.bpmn.task2;whiteSpace=wrap;rectStyle=rounded;size=10;html=1;container=1;expand=0;collapsible=0;taskMarker=abstract;" parent="rNKQusdqsnOIFdmcayMd-14" vertex="1">
          <mxGeometry x="570" y="65" width="190" height="80" as="geometry" />
        </mxCell>
        <mxCell id="IGT3o1ntx_T7jHhQjhBh-2" value="Нет" style="text;html=1;align=center;verticalAlign=middle;whiteSpace=wrap;rounded=0;" parent="rNKQusdqsnOIFdmcayMd-14" vertex="1">
          <mxGeometry x="430" y="20" width="60" height="30" as="geometry" />
        </mxCell>
        <mxCell id="EQHeuAijrMvpqQoiUxa1-1" value="&lt;h3 style=&quot;font-weight: var(--ds-font-weight-strong); font-size: calc(var(--ds-md-zoom)*16px); line-height: 1.5; margin: calc(var(--ds-md-zoom)*16px)0 calc(var(--ds-md-zoom)*12px)0; color: rgb(64, 64, 64); font-family: DeepSeek-CJK-patch, Inter, system-ui, -apple-system, BlinkMacSystemFont, &amp;quot;Segoe UI&amp;quot;, Roboto, &amp;quot;Noto Sans&amp;quot;, Ubuntu, Cantarell, &amp;quot;Helvetica Neue&amp;quot;, Oxygen, &amp;quot;Open Sans&amp;quot;, sans-serif; text-align: start;&quot;&gt;Модерация комментариев&lt;/h3&gt;" style="swimlane;html=1;childLayout=stackLayout;resizeParent=1;resizeParentMax=0;horizontal=1;startSize=20;horizontalStack=0;whiteSpace=wrap;" vertex="1" parent="1">
          <mxGeometry x="-2220" y="750" width="1280" height="400" as="geometry" />
        </mxCell>
        <mxCell id="EQHeuAijrMvpqQoiUxa1-2" value="Аналитик" style="swimlane;html=1;startSize=20;horizontal=0;" vertex="1" parent="EQHeuAijrMvpqQoiUxa1-1">
          <mxGeometry y="20" width="1280" height="190" as="geometry" />
        </mxCell>
        <mxCell id="EQHeuAijrMvpqQoiUxa1-3" value="Запрашивает&lt;div&gt;промодерированные&lt;/div&gt;&lt;div&gt;комментарии&lt;/div&gt;" style="points=[[0.145,0.145,0],[0.5,0,0],[0.855,0.145,0],[1,0.5,0],[0.855,0.855,0],[0.5,1,0],[0.145,0.855,0],[0,0.5,0]];shape=mxgraph.bpmn.event;html=1;verticalLabelPosition=bottom;labelBackgroundColor=#ffffff;verticalAlign=top;align=center;perimeter=ellipsePerimeter;outlineConnect=0;aspect=fixed;outline=standard;symbol=general;fillColor=#d5e8d4;strokeColor=#82b366;" vertex="1" parent="EQHeuAijrMvpqQoiUxa1-2">
          <mxGeometry x="70" y="70" width="50" height="50" as="geometry" />
        </mxCell>
        <mxCell id="EQHeuAijrMvpqQoiUxa1-4" value="Сохраняют отчёт" style="points=[[0.145,0.145,0],[0.5,0,0],[0.855,0.145,0],[1,0.5,0],[0.855,0.855,0],[0.5,1,0],[0.145,0.855,0],[0,0.5,0]];shape=mxgraph.bpmn.event;html=1;verticalLabelPosition=bottom;labelBackgroundColor=#ffffff;verticalAlign=top;align=center;perimeter=ellipsePerimeter;outlineConnect=0;aspect=fixed;outline=end;symbol=terminate2;fillColor=#f8cecc;strokeColor=#b85450;" vertex="1" parent="EQHeuAijrMvpqQoiUxa1-2">
          <mxGeometry x="920" y="85" width="50" height="50" as="geometry" />
        </mxCell>
        <mxCell id="EQHeuAijrMvpqQoiUxa1-22" style="edgeStyle=orthogonalEdgeStyle;rounded=0;orthogonalLoop=1;jettySize=auto;html=1;entryX=0;entryY=0.5;entryDx=0;entryDy=0;entryPerimeter=0;" edge="1" parent="EQHeuAijrMvpqQoiUxa1-2" source="EQHeuAijrMvpqQoiUxa1-20" target="EQHeuAijrMvpqQoiUxa1-23">
          <mxGeometry relative="1" as="geometry">
            <mxPoint x="620" y="110" as="targetPoint" />
          </mxGeometry>
        </mxCell>
        <mxCell id="EQHeuAijrMvpqQoiUxa1-20" value="&lt;div style=&quot;text-align: left;&quot;&gt;&lt;font face=&quot;DeepSeek-CJK-patch, Inter, system-ui, -apple-system, BlinkMacSystemFont, Segoe UI, Roboto, Noto Sans, Ubuntu, Cantarell, Helvetica Neue, Oxygen, Open Sans, sans-serif&quot; color=&quot;#404040&quot;&gt;&lt;span style=&quot;font-size: 16.002px;&quot;&gt;Анализируют комментарии&lt;/span&gt;&lt;/font&gt;&lt;/div&gt;" style="points=[[0.25,0,0],[0.5,0,0],[0.75,0,0],[1,0.25,0],[1,0.5,0],[1,0.75,0],[0.75,1,0],[0.5,1,0],[0.25,1,0],[0,0.75,0],[0,0.5,0],[0,0.25,0]];shape=mxgraph.bpmn.task2;whiteSpace=wrap;rectStyle=rounded;size=10;html=1;container=1;expand=0;collapsible=0;taskMarker=abstract;" vertex="1" parent="EQHeuAijrMvpqQoiUxa1-2">
          <mxGeometry x="320" y="70" width="220" height="80" as="geometry" />
        </mxCell>
        <mxCell id="EQHeuAijrMvpqQoiUxa1-23" value="&lt;div style=&quot;text-align: left;&quot;&gt;&lt;font face=&quot;DeepSeek-CJK-patch, Inter, system-ui, -apple-system, BlinkMacSystemFont, Segoe UI, Roboto, Noto Sans, Ubuntu, Cantarell, Helvetica Neue, Oxygen, Open Sans, sans-serif&quot; color=&quot;#404040&quot;&gt;&lt;span style=&quot;font-size: 16.002px;&quot;&gt;Составляют отчёт&lt;/span&gt;&lt;/font&gt;&lt;/div&gt;" style="points=[[0.25,0,0],[0.5,0,0],[0.75,0,0],[1,0.25,0],[1,0.5,0],[1,0.75,0],[0.75,1,0],[0.5,1,0],[0.25,1,0],[0,0.75,0],[0,0.5,0],[0,0.25,0]];shape=mxgraph.bpmn.task2;whiteSpace=wrap;rectStyle=rounded;size=10;html=1;container=1;expand=0;collapsible=0;taskMarker=abstract;" vertex="1" parent="EQHeuAijrMvpqQoiUxa1-2">
          <mxGeometry x="620" y="70" width="220" height="80" as="geometry" />
        </mxCell>
        <mxCell id="EQHeuAijrMvpqQoiUxa1-24" style="edgeStyle=orthogonalEdgeStyle;rounded=0;orthogonalLoop=1;jettySize=auto;html=1;exitX=1;exitY=0.5;exitDx=0;exitDy=0;exitPerimeter=0;entryX=0;entryY=0.5;entryDx=0;entryDy=0;entryPerimeter=0;" edge="1" parent="EQHeuAijrMvpqQoiUxa1-2" source="EQHeuAijrMvpqQoiUxa1-23" target="EQHeuAijrMvpqQoiUxa1-4">
          <mxGeometry relative="1" as="geometry" />
        </mxCell>
        <mxCell id="EQHeuAijrMvpqQoiUxa1-10" style="edgeStyle=orthogonalEdgeStyle;rounded=0;orthogonalLoop=1;jettySize=auto;html=1;exitX=1;exitY=0.5;exitDx=0;exitDy=0;exitPerimeter=0;entryX=0;entryY=0.5;entryDx=0;entryDy=0;entryPerimeter=0;" edge="1" parent="EQHeuAijrMvpqQoiUxa1-1" source="EQHeuAijrMvpqQoiUxa1-3" target="EQHeuAijrMvpqQoiUxa1-6">
          <mxGeometry relative="1" as="geometry" />
        </mxCell>
        <mxCell id="EQHeuAijrMvpqQoiUxa1-5" value="Система" style="swimlane;html=1;startSize=20;horizontal=0;" vertex="1" parent="EQHeuAijrMvpqQoiUxa1-1">
          <mxGeometry y="210" width="1280" height="190" as="geometry" />
        </mxCell>
        <mxCell id="EQHeuAijrMvpqQoiUxa1-6" value="&lt;div style=&quot;text-align: left;&quot;&gt;&lt;span style=&quot;background-color: transparent; font-size: 16.002px;&quot;&gt;&lt;font face=&quot;DeepSeek-CJK-patch, Inter, system-ui, -apple-system, BlinkMacSystemFont, Segoe UI, Roboto, Noto Sans, Ubuntu, Cantarell, Helvetica Neue, Oxygen, Open Sans, sans-serif&quot; color=&quot;#404040&quot;&gt;Собирает комментарии,&lt;/font&gt;&lt;/span&gt;&lt;/div&gt;&lt;div style=&quot;text-align: left;&quot;&gt;&lt;span style=&quot;background-color: transparent; font-size: 16.002px;&quot;&gt;&lt;font face=&quot;DeepSeek-CJK-patch, Inter, system-ui, -apple-system, BlinkMacSystemFont, Segoe UI, Roboto, Noto Sans, Ubuntu, Cantarell, Helvetica Neue, Oxygen, Open Sans, sans-serif&quot; color=&quot;#404040&quot;&gt;прошедшие модерацию&lt;/font&gt;&lt;/span&gt;&lt;/div&gt;" style="points=[[0.25,0,0],[0.5,0,0],[0.75,0,0],[1,0.25,0],[1,0.5,0],[1,0.75,0],[0.75,1,0],[0.5,1,0],[0.25,1,0],[0,0.75,0],[0,0.5,0],[0,0.25,0]];shape=mxgraph.bpmn.task2;whiteSpace=wrap;rectStyle=rounded;size=10;html=1;container=1;expand=0;collapsible=0;taskMarker=abstract;" vertex="1" parent="EQHeuAijrMvpqQoiUxa1-5">
          <mxGeometry x="170" y="70" width="190" height="80" as="geometry" />
        </mxCell>
        <mxCell id="EQHeuAijrMvpqQoiUxa1-19" value="Клафифицированные&lt;div&gt;комментарии&lt;/div&gt;" style="shape=mxgraph.bpmn.data2;labelPosition=center;verticalLabelPosition=bottom;align=center;verticalAlign=top;size=15;html=1;" vertex="1" parent="EQHeuAijrMvpqQoiUxa1-5">
          <mxGeometry x="490" y="10" width="40" height="60" as="geometry" />
        </mxCell>
        <mxCell id="EQHeuAijrMvpqQoiUxa1-7" style="edgeStyle=orthogonalEdgeStyle;rounded=0;orthogonalLoop=1;jettySize=auto;html=1;exitX=1;exitY=0.5;exitDx=0;exitDy=0;exitPerimeter=0;entryX=0.5;entryY=1;entryDx=0;entryDy=0;entryPerimeter=0;" edge="1" parent="EQHeuAijrMvpqQoiUxa1-1" source="EQHeuAijrMvpqQoiUxa1-6" target="EQHeuAijrMvpqQoiUxa1-20">
          <mxGeometry relative="1" as="geometry">
            <mxPoint x="470" y="320" as="targetPoint" />
          </mxGeometry>
        </mxCell>
        <mxCell id="EQHeuAijrMvpqQoiUxa1-21" value="" style="edgeStyle=elbowEdgeStyle;fontSize=12;html=1;endFill=0;startFill=0;endSize=6;startSize=6;dashed=1;dashPattern=1 4;endArrow=openThin;startArrow=none;rounded=0;exitX=0;exitY=0.5;exitDx=0;exitDy=0;exitPerimeter=0;" edge="1" parent="1" source="EQHeuAijrMvpqQoiUxa1-19">
          <mxGeometry width="160" relative="1" as="geometry">
            <mxPoint x="-1960" y="950" as="sourcePoint" />
            <mxPoint x="-1790" y="1000" as="targetPoint" />
          </mxGeometry>
        </mxCell>
      </root>
    </mxGraphModel>
  </diagram>
</mxfile>
